<svg xmlns="http://www.w3.org/2000/svg" xmlns:xlink="http://www.w3.org/1999/xlink" width="500" zoomAndPan="magnify" viewBox="0 0 375 374.999991" height="500" preserveAspectRatio="xMidYMid meet" version="1.0"><defs><g/><clipPath id="id1"><path d="M 240 240 L 269 240 L 269 270 L 240 270 Z M 240 240 " clip-rule="nonzero"/></clipPath><clipPath id="id2"><path d="M 39.773438 187.675781 L 187.207031 40.246094 L 334.636719 187.675781 L 187.207031 335.109375 Z M 39.773438 187.675781 " clip-rule="nonzero"/></clipPath><clipPath id="id3"><path d="M 39.773438 187.675781 L 187.207031 40.246094 L 334.636719 187.675781 L 187.207031 335.109375 Z M 39.773438 187.675781 " clip-rule="nonzero"/></clipPath><clipPath id="id4"><path d="M 245 246 L 275 246 L 275 275 L 245 275 Z M 245 246 " clip-rule="nonzero"/></clipPath><clipPath id="id5"><path d="M 39.773438 187.675781 L 187.207031 40.246094 L 334.636719 187.675781 L 187.207031 335.109375 Z M 39.773438 187.675781 " clip-rule="nonzero"/></clipPath><clipPath id="id6"><path d="M 39.773438 187.675781 L 187.207031 40.246094 L 334.636719 187.675781 L 187.207031 335.109375 Z M 39.773438 187.675781 " clip-rule="nonzero"/></clipPath><clipPath id="id7"><path d="M 126 267 L 248 267 L 248 324 L 126 324 Z M 126 267 " clip-rule="nonzero"/></clipPath><clipPath id="id8"><path d="M 39.773438 187.675781 L 187.207031 40.246094 L 334.636719 187.675781 L 187.207031 335.109375 Z M 39.773438 187.675781 " clip-rule="nonzero"/></clipPath><clipPath id="id9"><path d="M 39.773438 187.675781 L 187.207031 40.246094 L 334.636719 187.675781 L 187.207031 335.109375 Z M 39.773438 187.675781 " clip-rule="nonzero"/></clipPath><clipPath id="id10"><path d="M 105 240 L 135 240 L 135 270 L 105 270 Z M 105 240 " clip-rule="nonzero"/></clipPath><clipPath id="id11"><path d="M 39.773438 187.675781 L 187.207031 40.246094 L 334.636719 187.675781 L 187.207031 335.109375 Z M 39.773438 187.675781 " clip-rule="nonzero"/></clipPath><clipPath id="id12"><path d="M 39.773438 187.675781 L 187.207031 40.246094 L 334.636719 187.675781 L 187.207031 335.109375 Z M 39.773438 187.675781 " clip-rule="nonzero"/></clipPath><clipPath id="id13"><path d="M 100 246 L 129 246 L 129 275 L 100 275 Z M 100 246 " clip-rule="nonzero"/></clipPath><clipPath id="id14"><path d="M 39.773438 187.675781 L 187.207031 40.246094 L 334.636719 187.675781 L 187.207031 335.109375 Z M 39.773438 187.675781 " clip-rule="nonzero"/></clipPath><clipPath id="id15"><path d="M 39.773438 187.675781 L 187.207031 40.246094 L 334.636719 187.675781 L 187.207031 335.109375 Z M 39.773438 187.675781 " clip-rule="nonzero"/></clipPath><clipPath id="id16"><path d="M 267 127 L 324 127 L 324 248 L 267 248 Z M 267 127 " clip-rule="nonzero"/></clipPath><clipPath id="id17"><path d="M 39.773438 187.675781 L 187.207031 40.246094 L 334.636719 187.675781 L 187.207031 335.109375 Z M 39.773438 187.675781 " clip-rule="nonzero"/></clipPath><clipPath id="id18"><path d="M 39.773438 187.675781 L 187.207031 40.246094 L 334.636719 187.675781 L 187.207031 335.109375 Z M 39.773438 187.675781 " clip-rule="nonzero"/></clipPath><clipPath id="id19"><path d="M 51 127 L 108 127 L 108 248 L 51 248 Z M 51 127 " clip-rule="nonzero"/></clipPath><clipPath id="id20"><path d="M 39.773438 187.675781 L 187.207031 40.246094 L 334.636719 187.675781 L 187.207031 335.109375 Z M 39.773438 187.675781 " clip-rule="nonzero"/></clipPath><clipPath id="id21"><path d="M 39.773438 187.675781 L 187.207031 40.246094 L 334.636719 187.675781 L 187.207031 335.109375 Z M 39.773438 187.675781 " clip-rule="nonzero"/></clipPath><clipPath id="id22"><path d="M 126 51 L 248 51 L 248 108 L 126 108 Z M 126 51 " clip-rule="nonzero"/></clipPath><clipPath id="id23"><path d="M 39.773438 187.675781 L 187.207031 40.246094 L 334.636719 187.675781 L 187.207031 335.109375 Z M 39.773438 187.675781 " clip-rule="nonzero"/></clipPath><clipPath id="id24"><path d="M 39.773438 187.675781 L 187.207031 40.246094 L 334.636719 187.675781 L 187.207031 335.109375 Z M 39.773438 187.675781 " clip-rule="nonzero"/></clipPath><clipPath id="id25"><path d="M 245 100 L 275 100 L 275 130 L 245 130 Z M 245 100 " clip-rule="nonzero"/></clipPath><clipPath id="id26"><path d="M 39.773438 187.675781 L 187.207031 40.246094 L 334.636719 187.675781 L 187.207031 335.109375 Z M 39.773438 187.675781 " clip-rule="nonzero"/></clipPath><clipPath id="id27"><path d="M 39.773438 187.675781 L 187.207031 40.246094 L 334.636719 187.675781 L 187.207031 335.109375 Z M 39.773438 187.675781 " clip-rule="nonzero"/></clipPath><clipPath id="id28"><path d="M 240 106 L 269 106 L 269 135 L 240 135 Z M 240 106 " clip-rule="nonzero"/></clipPath><clipPath id="id29"><path d="M 39.773438 187.675781 L 187.207031 40.246094 L 334.636719 187.675781 L 187.207031 335.109375 Z M 39.773438 187.675781 " clip-rule="nonzero"/></clipPath><clipPath id="id30"><path d="M 39.773438 187.675781 L 187.207031 40.246094 L 334.636719 187.675781 L 187.207031 335.109375 Z M 39.773438 187.675781 " clip-rule="nonzero"/></clipPath><clipPath id="id31"><path d="M 105 106 L 135 106 L 135 135 L 105 135 Z M 105 106 " clip-rule="nonzero"/></clipPath><clipPath id="id32"><path d="M 39.773438 187.675781 L 187.207031 40.246094 L 334.636719 187.675781 L 187.207031 335.109375 Z M 39.773438 187.675781 " clip-rule="nonzero"/></clipPath><clipPath id="id33"><path d="M 39.773438 187.675781 L 187.207031 40.246094 L 334.636719 187.675781 L 187.207031 335.109375 Z M 39.773438 187.675781 " clip-rule="nonzero"/></clipPath><clipPath id="id34"><path d="M 100 100 L 129 100 L 129 130 L 100 130 Z M 100 100 " clip-rule="nonzero"/></clipPath><clipPath id="id35"><path d="M 39.773438 187.675781 L 187.207031 40.246094 L 334.636719 187.675781 L 187.207031 335.109375 Z M 39.773438 187.675781 " clip-rule="nonzero"/></clipPath><clipPath id="id36"><path d="M 39.773438 187.675781 L 187.207031 40.246094 L 334.636719 187.675781 L 187.207031 335.109375 Z M 39.773438 187.675781 " clip-rule="nonzero"/></clipPath></defs><rect x="-37.5" width="450" fill="#ffffff" y="-37.499999" height="449.999989" fill-opacity="1"/><rect x="-37.5" width="450" fill="#ffffff" y="-37.499999" height="449.999989" fill-opacity="1"/><rect x="-37.5" width="450" fill="#ffffff" y="-37.499999" height="449.999989" fill-opacity="1"/><g clip-path="url(#id1)"><g clip-path="url(#id2)"><g clip-path="url(#id3)"><path fill="#566262" d="M 240.207031 267.578125 L 267.109375 240.675781 L 268.722656 242.289062 L 241.820312 269.195312 Z M 240.207031 267.578125 " fill-opacity="1" fill-rule="nonzero"/></g></g></g><g clip-path="url(#id4)"><g clip-path="url(#id5)"><g clip-path="url(#id6)"><path fill="#566262" d="M 245.855469 273.230469 L 272.757812 246.324219 L 274.375 247.941406 L 247.46875 274.84375 Z M 245.855469 273.230469 " fill-opacity="1" fill-rule="nonzero"/></g></g></g><g clip-path="url(#id7)"><g clip-path="url(#id8)"><g clip-path="url(#id9)"><path fill="#566262" d="M 240.527344 278.554688 L 232.457031 278.554688 L 241.820312 269.195312 L 240.207031 267.578125 L 229.230469 278.554688 L 145.183594 278.554688 L 134.207031 267.578125 L 132.589844 269.195312 L 141.953125 278.554688 L 133.882812 278.554688 L 128.554688 273.230469 L 126.941406 274.84375 L 132.914062 280.816406 L 144.214844 280.816406 L 187.207031 323.808594 L 230.199219 280.816406 L 241.496094 280.816406 L 247.46875 274.84375 L 245.855469 273.230469 Z M 187.207031 320.578125 L 147.441406 280.816406 L 226.96875 280.816406 Z M 187.207031 320.578125 " fill-opacity="1" fill-rule="nonzero"/></g></g></g><g clip-path="url(#id10)"><g clip-path="url(#id11)"><g clip-path="url(#id12)"><path fill="#566262" d="M 105.6875 242.289062 L 107.300781 240.675781 L 134.207031 267.578125 L 132.589844 269.195312 Z M 105.6875 242.289062 " fill-opacity="1" fill-rule="nonzero"/></g></g></g><g clip-path="url(#id13)"><g clip-path="url(#id14)"><g clip-path="url(#id15)"><path fill="#566262" d="M 100.039062 247.941406 L 101.652344 246.324219 L 128.554688 273.230469 L 126.941406 274.84375 Z M 100.039062 247.941406 " fill-opacity="1" fill-rule="nonzero"/></g></g></g><g clip-path="url(#id16)"><g clip-path="url(#id17)"><g clip-path="url(#id18)"><path fill="#566262" d="M 278.085938 134.351562 L 278.085938 142.425781 L 268.722656 133.0625 L 267.109375 134.675781 L 278.085938 145.652344 L 278.085938 229.699219 L 267.109375 240.675781 L 268.722656 242.289062 L 278.085938 232.929688 L 278.085938 241 L 272.757812 246.324219 L 274.375 247.941406 L 280.347656 241.96875 L 280.347656 230.667969 L 323.339844 187.675781 L 280.347656 144.683594 L 280.347656 133.382812 L 274.375 127.410156 L 272.757812 129.027344 Z M 320.109375 187.675781 L 280.347656 227.4375 L 280.347656 147.914062 Z M 320.109375 187.675781 " fill-opacity="1" fill-rule="nonzero"/></g></g></g><g clip-path="url(#id19)"><g clip-path="url(#id20)"><g clip-path="url(#id21)"><path fill="#566262" d="M 96.324219 241 L 96.324219 232.929688 L 105.6875 242.289062 L 107.300781 240.675781 L 96.324219 229.699219 L 96.324219 145.652344 L 107.300781 134.675781 L 105.6875 133.0625 L 96.324219 142.425781 L 96.324219 134.351562 L 101.652344 129.027344 L 100.039062 127.410156 L 94.066406 133.382812 L 94.066406 144.683594 L 51.074219 187.675781 L 94.066406 230.667969 L 94.066406 241.96875 L 100.039062 247.941406 L 101.652344 246.324219 Z M 54.300781 187.675781 L 94.066406 147.914062 L 94.066406 227.4375 Z M 54.300781 187.675781 " fill-opacity="1" fill-rule="nonzero"/></g></g></g><g clip-path="url(#id22)"><g clip-path="url(#id23)"><g clip-path="url(#id24)"><path fill="#566262" d="M 133.882812 96.796875 L 141.953125 96.796875 L 132.589844 106.15625 L 134.207031 107.773438 L 145.183594 96.796875 L 229.230469 96.796875 L 240.207031 107.773438 L 241.820312 106.15625 L 232.457031 96.796875 L 240.527344 96.796875 L 245.855469 102.121094 L 247.46875 100.507812 L 241.496094 94.535156 L 230.199219 94.535156 L 187.207031 51.542969 L 144.214844 94.535156 L 132.914062 94.535156 L 126.941406 100.507812 L 128.554688 102.121094 Z M 187.207031 54.773438 L 226.96875 94.535156 L 147.441406 94.535156 Z M 187.207031 54.773438 " fill-opacity="1" fill-rule="nonzero"/></g></g></g><g clip-path="url(#id25)"><g clip-path="url(#id26)"><g clip-path="url(#id27)"><path fill="#566262" d="M 245.855469 102.121094 L 247.46875 100.507812 L 274.375 127.410156 L 272.757812 129.027344 Z M 245.855469 102.121094 " fill-opacity="1" fill-rule="nonzero"/></g></g></g><g clip-path="url(#id28)"><g clip-path="url(#id29)"><g clip-path="url(#id30)"><path fill="#566262" d="M 240.207031 107.773438 L 241.820312 106.15625 L 268.722656 133.0625 L 267.109375 134.675781 Z M 240.207031 107.773438 " fill-opacity="1" fill-rule="nonzero"/></g></g></g><g clip-path="url(#id31)"><g clip-path="url(#id32)"><g clip-path="url(#id33)"><path fill="#566262" d="M 105.6875 133.0625 L 132.589844 106.15625 L 134.207031 107.773438 L 107.300781 134.675781 Z M 105.6875 133.0625 " fill-opacity="1" fill-rule="nonzero"/></g></g></g><g clip-path="url(#id34)"><g clip-path="url(#id35)"><g clip-path="url(#id36)"><path fill="#566262" d="M 100.039062 127.410156 L 126.941406 100.507812 L 128.554688 102.121094 L 101.652344 129.027344 Z M 100.039062 127.410156 " fill-opacity="1" fill-rule="nonzero"/></g></g></g><path fill="#566262" d="M 187.898438 241.210938 C 182.101562 241.210938 177.398438 245.914062 177.398438 251.710938 C 177.398438 257.511719 182.101562 262.210938 187.898438 262.210938 C 193.699219 262.210938 198.398438 257.511719 198.398438 251.710938 C 198.398438 245.914062 193.699219 241.210938 187.898438 241.210938 " fill-opacity="1" fill-rule="nonzero"/><g fill="#566262" fill-opacity="1"><g transform="translate(144.892955, 149.904014)"><g><path d="M 9.5625 -6.359375 L 12.3125 -6.359375 L 12.3125 -1.484375 C 11.625 -1.003906 10.800781 -0.613281 9.84375 -0.3125 C 8.882812 -0.0078125 7.972656 0.140625 7.109375 0.140625 C 5.203125 0.140625 3.609375 -0.46875 2.328125 -1.6875 C 1.054688 -2.90625 0.421875 -4.425781 0.421875 -6.25 C 0.421875 -8.0625 1.078125 -9.570312 2.390625 -10.78125 C 3.703125 -12 5.347656 -12.609375 7.328125 -12.609375 C 8.253906 -12.609375 9.175781 -12.441406 10.09375 -12.109375 C 11.007812 -11.773438 11.789062 -11.320312 12.4375 -10.75 L 10.640625 -8.59375 C 10.191406 -9.007812 9.664062 -9.335938 9.0625 -9.578125 C 8.46875 -9.828125 7.878906 -9.953125 7.296875 -9.953125 C 6.273438 -9.953125 5.414062 -9.597656 4.71875 -8.890625 C 4.019531 -8.179688 3.671875 -7.300781 3.671875 -6.25 C 3.671875 -5.1875 4.019531 -4.296875 4.71875 -3.578125 C 5.425781 -2.867188 6.300781 -2.515625 7.34375 -2.515625 C 8.007812 -2.515625 8.75 -2.71875 9.5625 -3.125 Z M 9.5625 -6.359375 "/></g></g></g><g fill="#566262" fill-opacity="1"><g transform="translate(163.34454, 149.904014)"><g><path d="M 7.171875 -12.609375 C 9.117188 -12.609375 10.734375 -12.003906 12.015625 -10.796875 C 13.304688 -9.585938 13.953125 -8.078125 13.953125 -6.265625 C 13.953125 -4.441406 13.304688 -2.914062 12.015625 -1.6875 C 10.722656 -0.46875 9.109375 0.140625 7.171875 0.140625 C 5.242188 0.140625 3.632812 -0.46875 2.34375 -1.6875 C 1.0625 -2.90625 0.421875 -4.429688 0.421875 -6.265625 C 0.421875 -8.085938 1.0625 -9.597656 2.34375 -10.796875 C 3.632812 -12.003906 5.242188 -12.609375 7.171875 -12.609375 Z M 7.21875 -9.953125 C 6.238281 -9.953125 5.398438 -9.597656 4.703125 -8.890625 C 4.015625 -8.179688 3.671875 -7.300781 3.671875 -6.25 C 3.671875 -5.195312 4.019531 -4.3125 4.71875 -3.59375 C 5.414062 -2.875 6.242188 -2.515625 7.203125 -2.515625 C 8.171875 -2.515625 8.992188 -2.875 9.671875 -3.59375 C 10.347656 -4.3125 10.6875 -5.195312 10.6875 -6.25 C 10.6875 -7.300781 10.347656 -8.179688 9.671875 -8.890625 C 8.992188 -9.597656 8.175781 -9.953125 7.21875 -9.953125 Z M 7.21875 -9.953125 "/></g></g></g><g fill="#566262" fill-opacity="1"><g transform="translate(182.903397, 149.904014)"><g><path d="M 7.171875 -12.609375 C 9.117188 -12.609375 10.734375 -12.003906 12.015625 -10.796875 C 13.304688 -9.585938 13.953125 -8.078125 13.953125 -6.265625 C 13.953125 -4.441406 13.304688 -2.914062 12.015625 -1.6875 C 10.722656 -0.46875 9.109375 0.140625 7.171875 0.140625 C 5.242188 0.140625 3.632812 -0.46875 2.34375 -1.6875 C 1.0625 -2.90625 0.421875 -4.429688 0.421875 -6.265625 C 0.421875 -8.085938 1.0625 -9.597656 2.34375 -10.796875 C 3.632812 -12.003906 5.242188 -12.609375 7.171875 -12.609375 Z M 7.21875 -9.953125 C 6.238281 -9.953125 5.398438 -9.597656 4.703125 -8.890625 C 4.015625 -8.179688 3.671875 -7.300781 3.671875 -6.25 C 3.671875 -5.195312 4.019531 -4.3125 4.71875 -3.59375 C 5.414062 -2.875 6.242188 -2.515625 7.203125 -2.515625 C 8.171875 -2.515625 8.992188 -2.875 9.671875 -3.59375 C 10.347656 -4.3125 10.6875 -5.195312 10.6875 -6.25 C 10.6875 -7.300781 10.347656 -8.179688 9.671875 -8.890625 C 8.992188 -9.597656 8.175781 -9.953125 7.21875 -9.953125 Z M 7.21875 -9.953125 "/></g></g></g><g fill="#566262" fill-opacity="1"><g transform="translate(202.462256, 149.904014)"><g><path d="M 10.515625 -10 L 4.421875 -10 L 4.421875 -7.109375 L 10.03125 -7.109375 L 10.03125 -4.609375 L 4.421875 -4.609375 L 4.421875 0 L 1.25 0 L 1.25 -12.5 L 10.515625 -12.5 Z M 10.515625 -10 "/></g></g></g><g fill="#566262" fill-opacity="1"><g transform="translate(218.431375, 149.904014)"><g><path d="M 7.703125 -4.03125 L 7.703125 0 L 4.53125 0 L 4.53125 -3.953125 L -0.09375 -12.5 L 3.09375 -12.5 L 6.109375 -7.046875 L 9.0625 -12.5 L 12.234375 -12.5 Z M 7.703125 -4.03125 "/></g></g></g><g fill="#566262" fill-opacity="1"><g transform="translate(154.736705, 170.904013)"><g><path d="M 10.515625 -10 L 4.421875 -10 L 4.421875 -7.109375 L 10.03125 -7.109375 L 10.03125 -4.609375 L 4.421875 -4.609375 L 4.421875 0 L 1.25 0 L 1.25 -12.5 L 10.515625 -12.5 Z M 10.515625 -10 "/></g></g></g><g fill="#566262" fill-opacity="1"><g transform="translate(170.705825, 170.904013)"><g><path d="M 7.171875 -12.609375 C 9.117188 -12.609375 10.734375 -12.003906 12.015625 -10.796875 C 13.304688 -9.585938 13.953125 -8.078125 13.953125 -6.265625 C 13.953125 -4.441406 13.304688 -2.914062 12.015625 -1.6875 C 10.722656 -0.46875 9.109375 0.140625 7.171875 0.140625 C 5.242188 0.140625 3.632812 -0.46875 2.34375 -1.6875 C 1.0625 -2.90625 0.421875 -4.429688 0.421875 -6.265625 C 0.421875 -8.085938 1.0625 -9.597656 2.34375 -10.796875 C 3.632812 -12.003906 5.242188 -12.609375 7.171875 -12.609375 Z M 7.21875 -9.953125 C 6.238281 -9.953125 5.398438 -9.597656 4.703125 -8.890625 C 4.015625 -8.179688 3.671875 -7.300781 3.671875 -6.25 C 3.671875 -5.195312 4.019531 -4.3125 4.71875 -3.59375 C 5.414062 -2.875 6.242188 -2.515625 7.203125 -2.515625 C 8.171875 -2.515625 8.992188 -2.875 9.671875 -3.59375 C 10.347656 -4.3125 10.6875 -5.195312 10.6875 -6.25 C 10.6875 -7.300781 10.347656 -8.179688 9.671875 -8.890625 C 8.992188 -9.597656 8.175781 -9.953125 7.21875 -9.953125 Z M 7.21875 -9.953125 "/></g></g></g><g fill="#566262" fill-opacity="1"><g transform="translate(190.264682, 170.904013)"><g><path d="M 7.171875 -12.609375 C 9.117188 -12.609375 10.734375 -12.003906 12.015625 -10.796875 C 13.304688 -9.585938 13.953125 -8.078125 13.953125 -6.265625 C 13.953125 -4.441406 13.304688 -2.914062 12.015625 -1.6875 C 10.722656 -0.46875 9.109375 0.140625 7.171875 0.140625 C 5.242188 0.140625 3.632812 -0.46875 2.34375 -1.6875 C 1.0625 -2.90625 0.421875 -4.429688 0.421875 -6.265625 C 0.421875 -8.085938 1.0625 -9.597656 2.34375 -10.796875 C 3.632812 -12.003906 5.242188 -12.609375 7.171875 -12.609375 Z M 7.21875 -9.953125 C 6.238281 -9.953125 5.398438 -9.597656 4.703125 -8.890625 C 4.015625 -8.179688 3.671875 -7.300781 3.671875 -6.25 C 3.671875 -5.195312 4.019531 -4.3125 4.71875 -3.59375 C 5.414062 -2.875 6.242188 -2.515625 7.203125 -2.515625 C 8.171875 -2.515625 8.992188 -2.875 9.671875 -3.59375 C 10.347656 -4.3125 10.6875 -5.195312 10.6875 -6.25 C 10.6875 -7.300781 10.347656 -8.179688 9.671875 -8.890625 C 8.992188 -9.597656 8.175781 -9.953125 7.21875 -9.953125 Z M 7.21875 -9.953125 "/></g></g></g><g fill="#566262" fill-opacity="1"><g transform="translate(209.823541, 170.904013)"><g><path d="M 10.8125 -9.953125 L 7.03125 -9.953125 L 7.03125 0 L 3.859375 0 L 3.859375 -9.953125 L 0.125 -9.953125 L 0.125 -12.515625 L 10.8125 -12.515625 Z M 10.8125 -9.953125 "/></g></g></g><g fill="#566262" fill-opacity="1"><g transform="translate(159.407449, 219.649314)"><g><path d="M 0.59375 -5.921875 L 3.390625 -5.921875 C 4.054688 -5.921875 4.582031 -5.785156 4.96875 -5.515625 C 5.363281 -5.242188 5.5625 -4.882812 5.5625 -4.4375 C 5.5625 -4.125 5.46875 -3.847656 5.28125 -3.609375 C 5.101562 -3.378906 4.859375 -3.222656 4.546875 -3.140625 C 4.921875 -3.066406 5.21875 -2.894531 5.4375 -2.625 C 5.65625 -2.351562 5.765625 -2.023438 5.765625 -1.640625 C 5.765625 -1.140625 5.5625 -0.738281 5.15625 -0.4375 C 4.75 -0.144531 4.191406 0 3.484375 0 L 0.59375 0 Z M 2.09375 -4.765625 L 2.09375 -3.546875 L 3.3125 -3.546875 C 3.53125 -3.546875 3.703125 -3.597656 3.828125 -3.703125 C 3.960938 -3.816406 4.03125 -3.972656 4.03125 -4.171875 C 4.03125 -4.359375 3.960938 -4.503906 3.828125 -4.609375 C 3.703125 -4.710938 3.53125 -4.765625 3.3125 -4.765625 Z M 2.09375 -2.46875 L 2.09375 -1.15625 L 3.3125 -1.15625 C 3.59375 -1.15625 3.8125 -1.210938 3.96875 -1.328125 C 4.125 -1.453125 4.203125 -1.617188 4.203125 -1.828125 C 4.203125 -2.023438 4.125 -2.179688 3.96875 -2.296875 C 3.8125 -2.410156 3.59375 -2.46875 3.3125 -2.46875 Z M 2.09375 -2.46875 "/></g></g></g><g fill="#566262" fill-opacity="1"><g transform="translate(167.895177, 219.649314)"><g><path d="M 4.515625 -1.09375 L 1.9375 -1.09375 L 1.5 0 L -0.046875 0 L 2.515625 -5.921875 L 4.0625 -5.921875 L 6.546875 0 L 4.9375 0 Z M 4.078125 -2.234375 L 3.234375 -4.421875 L 2.375 -2.234375 Z M 4.078125 -2.234375 "/></g></g></g><g fill="#566262" fill-opacity="1"><g transform="translate(176.847407, 219.649314)"><g><path d="M 2.09375 -1.265625 L 4.609375 -1.265625 L 4.609375 0 L 0.59375 0 L 0.59375 -5.921875 L 2.09375 -5.921875 Z M 2.09375 -1.265625 "/></g></g></g><g fill="#566262" fill-opacity="1"><g transform="translate(184.026077, 219.649314)"><g><path d="M 4.515625 -1.09375 L 1.9375 -1.09375 L 1.5 0 L -0.046875 0 L 2.515625 -5.921875 L 4.0625 -5.921875 L 6.546875 0 L 4.9375 0 Z M 4.078125 -2.234375 L 3.234375 -4.421875 L 2.375 -2.234375 Z M 4.078125 -2.234375 "/></g></g></g><g fill="#566262" fill-opacity="1"><g transform="translate(192.978308, 219.649314)"><g><path d="M 6.046875 0 L 4.71875 0 L 2 -3.640625 L 2 0 L 0.59375 0 L 0.59375 -5.921875 L 1.921875 -5.921875 L 4.65625 -2.265625 L 4.65625 -5.921875 L 6.046875 -5.921875 Z M 6.046875 0 "/></g></g></g><g fill="#566262" fill-opacity="1"><g transform="translate(202.065666, 219.649314)"><g><path d="M 3.359375 -5.96875 C 3.804688 -5.96875 4.238281 -5.875 4.65625 -5.6875 C 5.082031 -5.507812 5.445312 -5.269531 5.75 -4.96875 L 4.875 -3.9375 C 4.6875 -4.175781 4.457031 -4.363281 4.1875 -4.5 C 3.914062 -4.632812 3.648438 -4.703125 3.390625 -4.703125 C 2.921875 -4.703125 2.523438 -4.535156 2.203125 -4.203125 C 1.890625 -3.878906 1.734375 -3.476562 1.734375 -3 C 1.734375 -2.5 1.890625 -2.082031 2.203125 -1.75 C 2.523438 -1.414062 2.921875 -1.25 3.390625 -1.25 C 3.640625 -1.25 3.894531 -1.3125 4.15625 -1.4375 C 4.425781 -1.5625 4.664062 -1.726562 4.875 -1.9375 L 5.75 -1.015625 C 5.4375 -0.691406 5.0625 -0.429688 4.625 -0.234375 C 4.1875 -0.0351562 3.75 0.0625 3.3125 0.0625 C 2.425781 0.0625 1.6875 -0.222656 1.09375 -0.796875 C 0.5 -1.378906 0.203125 -2.101562 0.203125 -2.96875 C 0.203125 -3.820312 0.503906 -4.535156 1.109375 -5.109375 C 1.710938 -5.679688 2.460938 -5.96875 3.359375 -5.96875 Z M 3.359375 -5.96875 "/></g></g></g><g fill="#566262" fill-opacity="1"><g transform="translate(210.359147, 219.649314)"><g><path d="M 5.21875 -4.734375 L 2.09375 -4.734375 L 2.09375 -3.5625 L 4.921875 -3.5625 L 4.921875 -2.375 L 2.09375 -2.375 L 2.09375 -1.1875 L 5.3125 -1.1875 L 5.3125 0 L 0.59375 0 L 0.59375 -5.921875 L 5.21875 -5.921875 Z M 5.21875 -4.734375 "/></g></g></g><path stroke-linecap="butt" transform="matrix(3.75, 0, 0, 3.75, 127.736084, 233.296449)" fill="none" stroke-linejoin="miter" d="M -0.000455763 0.000113685 L 31.999546 0.000113685 " stroke="#566262" stroke-width="1" stroke-opacity="1" stroke-miterlimit="4"/></svg>